<svg version="1.1" viewBox="0.0 0.0 430.0 262.0" fill="none" stroke="none" stroke-linecap="square" stroke-miterlimit="10" width="430" height="262" xmlns:xlink="http://www.w3.org/1999/xlink" xmlns="http://www.w3.org/2000/svg"><path fill="#ffffff" d="M0 0L430.0 0L430.0 262.0L0 262.0L0 0Z" fill-rule="nonzero"/><path stroke="#333333" stroke-width="1.0" stroke-linecap="butt" d="M72.5 196.5L416.5 196.5" fill-rule="nonzero"/><path stroke="#cccccc" stroke-width="1.0" stroke-linecap="butt" d="M72.5 158.5L416.5 158.5" fill-rule="nonzero"/><path stroke="#cccccc" stroke-width="1.0" stroke-linecap="butt" d="M72.5 119.5L416.5 119.5" fill-rule="nonzero"/><path stroke="#cccccc" stroke-width="1.0" stroke-linecap="butt" d="M72.5 81.5L416.5 81.5" fill-rule="nonzero"/><path stroke="#cccccc" stroke-width="1.0" stroke-linecap="butt" d="M72.5 42.5L416.5 42.5" fill-rule="nonzero"/><clipPath id="id_0"><path d="M72.1 42.833332L416.9 42.833332L416.9 196.9L72.1 196.9L72.1 42.833332Z" clip-rule="nonzero"/></clipPath><path stroke="#4285f4" stroke-width="2.0" stroke-linecap="butt" clip-path="url(#id_0)" d="M72.1 59.42631L158.3 59.42631L244.5 59.42631L330.7 59.42631L416.9 59.42631" fill-rule="nonzero"/><path stroke="#ea4335" stroke-width="2.0" stroke-linecap="butt" clip-path="url(#id_0)" d="M72.1 69.61012L158.3 62.877407L244.5 58.88708L330.7 56.34498L416.9 54.72728" fill-rule="nonzero"/><path fill="#000000" fill-opacity="0.0" clip-path="url(#id_0)" d="M75.1 59.42631C75.1 61.083168 73.75685 62.42631 72.1 62.42631C70.443146 62.42631 69.1 61.083168 69.1 59.42631C69.1 57.76946 70.443146 56.42631 72.1 56.42631C73.75685 56.42631 75.1 57.76946 75.1 59.42631Z" fill-rule="nonzero"/><path fill="#000000" fill-opacity="0.0" clip-path="url(#id_0)" d="M161.3 59.42631C161.3 61.083168 159.95685 62.42631 158.3 62.42631C156.64314 62.42631 155.3 61.083168 155.3 59.42631C155.3 57.76946 156.64314 56.42631 158.3 56.42631C159.95685 56.42631 161.3 57.76946 161.3 59.42631Z" fill-rule="nonzero"/><path fill="#000000" fill-opacity="0.0" clip-path="url(#id_0)" d="M247.5 59.42631C247.5 61.083168 246.15686 62.42631 244.5 62.42631C242.84314 62.42631 241.5 61.083168 241.5 59.42631C241.5 57.76946 242.84314 56.42631 244.5 56.42631C246.15686 56.42631 247.5 57.76946 247.5 59.42631Z" fill-rule="nonzero"/><path fill="#000000" fill-opacity="0.0" clip-path="url(#id_0)" d="M333.7 59.42631C333.7 61.083168 332.35684 62.42631 330.7 62.42631C329.04315 62.42631 327.7 61.083168 327.7 59.42631C327.7 57.76946 329.04315 56.42631 330.7 56.42631C332.35684 56.42631 333.7 57.76946 333.7 59.42631Z" fill-rule="nonzero"/><path fill="#000000" fill-opacity="0.0" clip-path="url(#id_0)" d="M419.9 59.42631C419.9 61.083168 418.55685 62.42631 416.9 62.42631C415.24313 62.42631 413.9 61.083168 413.9 59.42631C413.9 57.76946 415.24313 56.42631 416.9 56.42631C418.55685 56.42631 419.9 57.76946 419.9 59.42631Z" fill-rule="nonzero"/><path fill="#000000" fill-opacity="0.0" clip-path="url(#id_0)" d="M75.1 69.61012C75.1 71.266975 73.75685 72.61012 72.1 72.61012C70.443146 72.61012 69.1 71.266975 69.1 69.61012C69.1 67.95326 70.443146 66.61012 72.1 66.61012C73.75685 66.61012 75.1 67.95326 75.1 69.61012Z" fill-rule="nonzero"/><path fill="#000000" fill-opacity="0.0" clip-path="url(#id_0)" d="M161.3 62.877407C161.3 64.53426 159.95685 65.8774 158.3 65.8774C156.64314 65.8774 155.3 64.53426 155.3 62.877407C155.3 61.22055 156.64314 59.877407 158.3 59.877407C159.95685 59.877407 161.3 61.22055 161.3 62.877407Z" fill-rule="nonzero"/><path fill="#000000" fill-opacity="0.0" clip-path="url(#id_0)" d="M247.5 58.88708C247.5 60.543934 246.15686 61.88708 244.5 61.88708C242.84314 61.88708 241.5 60.543934 241.5 58.88708C241.5 57.230225 242.84314 55.88708 244.5 55.88708C246.15686 55.88708 247.5 57.230225 247.5 58.88708Z" fill-rule="nonzero"/><path fill="#000000" fill-opacity="0.0" clip-path="url(#id_0)" d="M333.7 56.34498C333.7 58.001835 332.35684 59.34498 330.7 59.34498C329.04315 59.34498 327.7 58.001835 327.7 56.34498C327.7 54.688126 329.04315 53.34498 330.7 53.34498C332.35684 53.34498 333.7 54.688126 333.7 56.34498Z" fill-rule="nonzero"/><path fill="#000000" fill-opacity="0.0" clip-path="url(#id_0)" d="M419.9 54.72728C419.9 56.384132 418.55685 57.72728 416.9 57.72728C415.24313 57.72728 413.9 56.384132 413.9 54.72728C413.9 53.070427 415.24313 51.72728 416.9 51.72728C418.55685 51.72728 419.9 53.070427 419.9 54.72728Z" fill-rule="nonzero"/><path fill="#000000" d="M224.45312 245.9L224.45312 237.30624L230.65625 237.30624L230.65625 238.32187L225.59375 238.32187L225.59375 240.94687L230.34375 240.94687L230.34375 241.9625L225.59375 241.9625L225.59375 244.88437L230.85938 244.88437L230.85938 245.9L224.45312 245.9ZM232.29688 248.29062L232.29688 239.68124L233.25 239.68124L233.25 240.47812Q233.59375 240.00937 234.01562 239.775Q234.45312 239.54062 235.0625 239.54062Q235.85938 239.54062 236.46875 239.94687Q237.07812 240.35312 237.375 241.10312Q237.6875 241.85312 237.6875 242.74374Q237.6875 243.69687 237.34375 244.4625Q237.01562 245.22812 236.35938 245.63437Q235.70312 246.04062 234.98438 246.04062Q234.45312 246.04062 234.03125 245.82187Q233.60938 245.5875 233.34375 245.25937L233.34375 248.29062L232.29688 248.29062ZM233.25 242.82187Q233.25 244.025 233.73438 244.60312Q234.21875 245.16562 234.90625 245.16562Q235.60938 245.16562 236.10938 244.57187Q236.60938 243.97812 236.60938 242.72812Q236.60938 241.54062 236.125 240.9625Q235.64062 240.36874 234.95312 240.36874Q234.28125 240.36874 233.76562 240.99374Q233.25 241.61874 233.25 242.82187ZM238.90625 242.79062Q238.90625 241.05624 239.85938 240.22812Q240.65625 239.54062 241.8125 239.54062Q243.09375 239.54062 243.90625 240.38437Q244.73438 241.2125 244.73438 242.69687Q244.73438 243.9 244.375 244.5875Q244.01562 245.275 243.3125 245.66562Q242.625 246.04062 241.8125 246.04062Q240.51562 246.04062 239.70312 245.2125Q238.90625 244.36874 238.90625 242.79062ZM239.98438 242.79062Q239.98438 243.97812 240.5 244.57187Q241.03125 245.16562 241.8125 245.16562Q242.60938 245.16562 243.125 244.57187Q243.64062 243.97812 243.64062 242.75937Q243.64062 241.60312 243.10938 241.00937Q242.59375 240.41562 241.8125 240.41562Q241.03125 240.41562 240.5 241.00937Q239.98438 241.5875 239.98438 242.79062ZM250.35938 243.61874L251.39062 243.75937Q251.21875 244.82187 250.51562 245.43124Q249.8125 246.04062 248.79688 246.04062Q247.51562 246.04062 246.73438 245.2125Q245.96875 244.36874 245.96875 242.80624Q245.96875 241.80624 246.29688 241.05624Q246.64062 240.29062 247.3125 239.91562Q248.0 239.54062 248.8125 239.54062Q249.8125 239.54062 250.45312 240.05624Q251.10938 240.55624 251.29688 241.50937L250.26562 241.66562Q250.125 241.04062 249.75 240.72812Q249.375 240.4 248.84375 240.4Q248.04688 240.4 247.54688 240.97812Q247.04688 241.54062 247.04688 242.775Q247.04688 244.04062 247.53125 244.60312Q248.01562 245.16562 248.78125 245.16562Q249.40625 245.16562 249.8125 244.79062Q250.23438 244.41562 250.35938 243.61874ZM252.29688 245.9L252.29688 237.30624L253.34375 237.30624L253.34375 240.38437Q254.07812 239.54062 255.20312 239.54062Q255.90625 239.54062 256.40625 239.82187Q256.92188 240.0875 257.14062 240.57187Q257.35938 241.04062 257.35938 241.9625L257.35938 245.9L256.3125 245.9L256.3125 241.9625Q256.3125 241.16562 255.96875 240.80624Q255.625 240.44687 255.0 240.44687Q254.53125 240.44687 254.10938 240.69687Q253.70312 240.93124 253.51562 241.35312Q253.34375 241.75937 253.34375 242.49374L253.34375 245.9L252.29688 245.9ZM258.875 244.04062L259.90625 243.88437Q260.0 244.50937 260.39062 244.8375Q260.79688 245.16562 261.53125 245.16562Q262.25 245.16562 262.59375 244.88437Q262.95312 244.5875 262.95312 244.18124Q262.95312 243.82187 262.64062 243.61874Q262.42188 243.47812 261.5625 243.25937Q260.40625 242.9625 259.95312 242.75937Q259.51562 242.54062 259.28125 242.16562Q259.04688 241.79062 259.04688 241.32187Q259.04688 240.91562 259.23438 240.55624Q259.42188 240.19687 259.75 239.9625Q260.0 239.79062 260.42188 239.66562Q260.84375 239.54062 261.34375 239.54062Q262.0625 239.54062 262.60938 239.75937Q263.17188 239.9625 263.4375 240.32187Q263.70312 240.68124 263.79688 241.275L262.76562 241.41562Q262.70312 240.94687 262.35938 240.68124Q262.03125 240.4 261.40625 240.4Q260.6875 240.4 260.375 240.65Q260.0625 240.88437 260.0625 241.2125Q260.0625 241.41562 260.1875 241.57187Q260.32812 241.74374 260.59375 241.85312Q260.75 241.91562 261.53125 242.11874Q262.65625 242.43124 263.09375 242.61874Q263.53125 242.80624 263.78125 243.16562Q264.03125 243.525 264.03125 244.07187Q264.03125 244.60312 263.71875 245.07187Q263.42188 245.525 262.84375 245.79062Q262.26562 246.04062 261.53125 246.04062Q260.3125 246.04062 259.67188 245.54062Q259.04688 245.025 258.875 244.04062Z" fill-rule="nonzero"/><path fill="#000000" d="M24.099995 158.49167L15.506244 161.8198L15.506244 160.58542L21.756245 158.35104Q22.506245 158.08542 23.162495 157.89792Q22.45937 157.6948 21.756245 157.42917L15.506244 155.11667L15.506244 153.96042L24.099995 157.3198L24.099995 158.49167ZM23.33437 150.0073Q23.83437 150.60104 24.037495 151.14792Q24.24062 151.67917 24.24062 152.30417Q24.24062 153.33542 23.74062 153.8823Q23.24062 154.42917 22.45937 154.42917Q22.006245 154.42917 21.631245 154.22604Q21.24062 154.02292 21.02187 153.67917Q20.787495 153.33542 20.67812 152.91354Q20.58437 152.61667 20.506245 151.97604Q20.36562 150.71042 20.14687 150.10104Q19.92812 150.10104 19.881245 150.10104Q19.224995 150.10104 18.95937 150.39792Q18.61562 150.80417 18.61562 151.60104Q18.61562 152.33542 18.881245 152.6948Q19.131245 153.05417 19.787495 153.22604L19.64687 154.2573Q18.99062 154.11667 18.58437 153.78854Q18.17812 153.46042 17.95937 152.85104Q17.74062 152.24167 17.74062 151.4448Q17.74062 150.64792 17.92812 150.14792Q18.11562 149.64792 18.39687 149.41354Q18.67812 149.17917 19.11562 149.08542Q19.381245 149.03854 20.08437 149.03854L21.49062 149.03854Q22.95937 149.03854 23.349995 148.97604Q23.74062 148.89792 24.099995 148.6948L24.099995 149.80417Q23.77187 149.96042 23.33437 150.0073ZM20.974995 150.10104Q21.20937 150.67917 21.381245 151.8198Q21.474995 152.47604 21.599995 152.74167Q21.70937 153.0073 21.92812 153.16354Q22.14687 153.30417 22.42812 153.30417Q22.849995 153.30417 23.131245 152.99167Q23.412495 152.66354 23.412495 152.05417Q23.412495 151.4448 23.14687 150.97604Q22.881245 150.49167 22.412495 150.27292Q22.05312 150.10104 21.36562 150.10104L20.974995 150.10104ZM24.099995 147.10104L15.506244 147.10104L15.506244 146.03854L24.099995 146.03854L24.099995 147.10104ZM24.099995 143.77292L22.89687 143.77292L22.89687 142.5698L24.099995 142.5698L24.099995 143.77292ZM24.099995 138.8823L15.506244 135.58542L15.506244 134.36667L24.099995 130.85104L24.099995 132.1323L21.49062 133.14792L21.49062 136.72604L24.099995 137.67917L24.099995 138.8823ZM20.568745 136.39792L20.568745 133.49167L18.193745 134.3823Q17.11562 134.80417 16.412495 134.99167Q17.24062 135.16354 18.05312 135.46042L20.568745 136.39792ZM21.818745 127.00729L21.95937 125.97604Q23.02187 126.14792 23.631245 126.85104Q24.24062 127.55417 24.24062 128.5698Q24.24062 129.85104 23.412495 130.6323Q22.568745 131.39792 21.006245 131.39792Q20.006245 131.39792 19.256245 131.0698Q18.49062 130.72604 18.11562 130.05417Q17.74062 129.36667 17.74062 128.55417Q17.74062 127.55417 18.256245 126.91354Q18.756245 126.25729 19.70937 126.06979L19.86562 127.10104Q19.24062 127.24167 18.92812 127.61667Q18.599995 127.99167 18.599995 128.52292Q18.599995 129.3198 19.17812 129.8198Q19.74062 130.3198 20.974995 130.3198Q22.24062 130.3198 22.80312 129.83542Q23.36562 129.35104 23.36562 128.58542Q23.36562 127.96042 22.99062 127.55417Q22.61562 127.13229 21.818745 127.00729ZM21.818745 121.00729L21.95937 119.97604Q23.02187 120.14792 23.631245 120.85104Q24.24062 121.55417 24.24062 122.56979Q24.24062 123.85104 23.412495 124.63229Q22.568745 125.39792 21.006245 125.39792Q20.006245 125.39792 19.256245 125.06979Q18.49062 124.72604 18.11562 124.05417Q17.74062 123.36667 17.74062 122.55417Q17.74062 121.55417 18.256245 120.91354Q18.756245 120.25729 19.70937 120.06979L19.86562 121.10104Q19.24062 121.24167 18.92812 121.61667Q18.599995 121.99167 18.599995 122.52292Q18.599995 123.31979 19.17812 123.81979Q19.74062 124.31979 20.974995 124.31979Q22.24062 124.31979 22.80312 123.83542Q23.36562 123.35104 23.36562 122.58542Q23.36562 121.96042 22.99062 121.55417Q22.61562 121.13229 21.818745 121.00729ZM24.099995 114.99167L23.17812 114.99167Q24.24062 115.72604 24.24062 116.97604Q24.24062 117.52292 24.037495 118.00729Q23.818745 118.47604 23.506245 118.71042Q23.17812 118.94479 22.70937 119.03854Q22.412495 119.10104 21.724995 119.10104L17.881245 119.10104L17.881245 118.03854L21.33437 118.03854Q22.14687 118.03854 22.443745 117.97604Q22.849995 117.88229 23.099995 117.56979Q23.33437 117.24167 23.33437 116.75729Q23.33437 116.28854 23.099995 115.88229Q22.849995 115.46042 22.42812 115.28854Q22.006245 115.10104 21.20937 115.10104L17.881245 115.10104L17.881245 114.05417L24.099995 114.05417L24.099995 114.99167ZM24.099995 112.08542L17.881245 112.08542L17.881245 111.13229L18.818745 111.13229Q18.162495 110.77292 17.95937 110.47604Q17.74062 110.16354 17.74062 109.78854Q17.74062 109.25729 18.068745 108.71042L19.05312 109.06979Q18.818745 109.46042 18.818745 109.83542Q18.818745 110.19479 19.037495 110.47604Q19.24062 110.74167 19.61562 110.85104Q20.17812 111.03854 20.83437 111.03854L24.099995 111.03854L24.099995 112.08542ZM23.33437 104.00729Q23.83437 104.60104 24.037495 105.14792Q24.24062 105.67917 24.24062 106.30417Q24.24062 107.33542 23.74062 107.88229Q23.24062 108.42917 22.45937 108.42917Q22.006245 108.42917 21.631245 108.22604Q21.24062 108.02292 21.02187 107.67917Q20.787495 107.33542 20.67812 106.91354Q20.58437 106.61667 20.506245 105.97604Q20.36562 104.71042 20.14687 104.10104Q19.92812 104.10104 19.881245 104.10104Q19.224995 104.10104 18.95937 104.39792Q18.61562 104.80417 18.61562 105.60104Q18.61562 106.33542 18.881245 106.69479Q19.131245 107.05417 19.787495 107.22604L19.64687 108.25729Q18.99062 108.11667 18.58437 107.78854Q18.17812 107.46042 17.95937 106.85104Q17.74062 106.24167 17.74062 105.44479Q17.74062 104.64792 17.92812 104.14792Q18.11562 103.64792 18.39687 103.41354Q18.67812 103.17917 19.11562 103.08542Q19.381245 103.03854 20.08437 103.03854L21.49062 103.03854Q22.95937 103.03854 23.349995 102.97604Q23.74062 102.89792 24.099995 102.69479L24.099995 103.80417Q23.77187 103.96042 23.33437 104.00729ZM20.974995 104.10104Q21.20937 104.67917 21.381245 105.81979Q21.474995 106.47604 21.599995 106.74167Q21.70937 107.00729 21.92812 107.16354Q22.14687 107.30417 22.42812 107.30417Q22.849995 107.30417 23.131245 106.99167Q23.412495 106.66354 23.412495 106.05417Q23.412495 105.44479 23.14687 104.97604Q22.881245 104.49167 22.412495 104.27292Q22.05312 104.10104 21.36562 104.10104L20.974995 104.10104ZM21.818745 97.00729L21.95937 95.97604Q23.02187 96.14792 23.631245 96.85104Q24.24062 97.55417 24.24062 98.56979Q24.24062 99.85104 23.412495 100.63229Q22.568745 101.39792 21.006245 101.39792Q20.006245 101.39792 19.256245 101.06979Q18.49062 100.72604 18.11562 100.05417Q17.74062 99.36667 17.74062 98.55417Q17.74062 97.55417 18.256245 96.91354Q18.756245 96.25729 19.70937 96.06979L19.86562 97.10104Q19.24062 97.24167 18.92812 97.61667Q18.599995 97.99167 18.599995 98.52292Q18.599995 99.31979 19.17812 99.81979Q19.74062 100.31979 20.974995 100.31979Q22.24062 100.31979 22.80312 99.83542Q23.36562 99.35104 23.36562 98.58542Q23.36562 97.96042 22.99062 97.55417Q22.61562 97.13229 21.818745 97.00729ZM26.49062 95.11667L25.506245 95.24167Q25.599995 94.89792 25.599995 94.63229Q25.599995 94.28854 25.474995 94.08542Q25.36562 93.86667 25.162495 93.72604Q24.99062 93.63229 24.36562 93.39792Q24.287495 93.38229 24.11562 93.30417L17.881245 95.67917L17.881245 94.53854L21.474995 93.24167Q22.162495 92.99167 22.92812 92.78854Q22.193745 92.60104 21.506245 92.35104L17.881245 91.02292L17.881245 89.97604L24.20937 92.33542Q25.224995 92.72604 25.61562 92.92917Q26.14687 93.21042 26.381245 93.58542Q26.631245 93.94479 26.631245 94.44479Q26.631245 94.74167 26.49062 95.11667Z" fill-rule="nonzero"/><path fill="#000000" d="M59.6 196.66562Q59.6 195.13437 59.9125 194.2125Q60.225 193.275 60.834373 192.775Q61.459373 192.275 62.396873 192.275Q63.084373 192.275 63.6 192.55624Q64.13125 192.8375 64.475 193.36874Q64.81875 193.88437 65.00625 194.63437Q65.19375 195.38437 65.19375 196.66562Q65.19375 198.18124 64.88125 199.10312Q64.58437 200.025 63.959373 200.54062Q63.35 201.04062 62.396873 201.04062Q61.1625 201.04062 60.44375 200.15Q59.6 199.0875 59.6 196.66562ZM60.678123 196.66562Q60.678123 198.775 61.178123 199.47812Q61.678123 200.18124 62.396873 200.18124Q63.13125 200.18124 63.615623 199.47812Q64.11562 198.775 64.11562 196.66562Q64.11562 194.54062 63.615623 193.85312Q63.13125 193.15 62.38125 193.15Q61.6625 193.15 61.225 193.75937Q60.678123 194.54062 60.678123 196.66562Z" fill-rule="nonzero"/><path fill="#000000" d="M58.146873 161.3677L58.146873 162.38333L52.459373 162.38333Q52.459373 162.00833 52.584373 161.64896Q52.803123 161.07083 53.271873 160.50833Q53.75625 159.94583 54.6625 159.21146Q56.06875 158.0552 56.553123 157.38333Q57.053123 156.71146 57.053123 156.1177Q57.053123 155.4927 56.6 155.07083Q56.146873 154.63333 55.428123 154.63333Q54.6625 154.63333 54.209373 155.08646Q53.75625 155.53958 53.740623 156.35208L52.6625 156.2427Q52.771873 155.02396 53.490623 154.39896Q54.225 153.75833 55.459373 153.75833Q56.69375 153.75833 57.4125 154.44583Q58.13125 155.13333 58.13125 156.14896Q58.13125 156.66458 57.9125 157.16458Q57.709373 157.64896 57.209373 158.21146Q56.725 158.75833 55.6 159.71146Q54.646873 160.50833 54.365623 160.8052Q54.1 161.08646 53.928123 161.3677L58.146873 161.3677ZM59.6 160.13333L60.709373 160.03958Q60.834373 160.85208 61.271873 161.25833Q61.725 161.66458 62.365623 161.66458Q63.115623 161.66458 63.646873 161.08646Q64.17812 160.50833 64.17812 159.57083Q64.17812 158.66458 63.6625 158.14896Q63.1625 157.6177 62.334373 157.6177Q61.834373 157.6177 61.4125 157.85208Q61.00625 158.08646 60.771873 158.44583L59.7875 158.32083L60.615623 153.91458L64.89687 153.91458L64.89687 154.91458L61.459373 154.91458L61.00625 157.22708Q61.771873 156.6802 62.615623 156.6802Q63.740623 156.6802 64.50625 157.46146Q65.2875 158.2427 65.2875 159.47708Q65.2875 160.63333 64.61562 161.4927Q63.7875 162.52396 62.365623 162.52396Q61.19375 162.52396 60.44375 161.8677Q59.709373 161.21146 59.6 160.13333Z" fill-rule="nonzero"/><path fill="#000000" d="M52.6 121.61667L53.709373 121.52292Q53.834373 122.33542 54.271873 122.74167Q54.725 123.14792 55.365623 123.14792Q56.115623 123.14792 56.646873 122.56979Q57.178123 121.99167 57.178123 121.05417Q57.178123 120.14792 56.6625 119.63229Q56.1625 119.10104 55.334373 119.10104Q54.834373 119.10104 54.4125 119.33542Q54.00625 119.56979 53.771873 119.92917L52.7875 119.80417L53.615623 115.39792L57.896873 115.39792L57.896873 116.39792L54.459373 116.39792L54.00625 118.71042Q54.771873 118.16354 55.615623 118.16354Q56.740623 118.16354 57.50625 118.94479Q58.2875 119.72604 58.2875 120.96042Q58.2875 122.11667 57.615623 122.97604Q56.7875 124.00729 55.365623 124.00729Q54.19375 124.00729 53.44375 123.35104Q52.709373 122.69479 52.6 121.61667ZM59.6 119.63229Q59.6 118.10104 59.9125 117.17917Q60.225 116.24167 60.834373 115.74167Q61.459373 115.24167 62.396873 115.24167Q63.084373 115.24167 63.6 115.52292Q64.13125 115.80417 64.475 116.33542Q64.81875 116.85104 65.00625 117.60104Q65.19375 118.35104 65.19375 119.63229Q65.19375 121.14792 64.88125 122.06979Q64.58437 122.99167 63.959373 123.50729Q63.35 124.00729 62.396873 124.00729Q61.1625 124.00729 60.44375 123.11667Q59.6 122.05417 59.6 119.63229ZM60.678123 119.63229Q60.678123 121.74167 61.178123 122.44479Q61.678123 123.14792 62.396873 123.14792Q63.13125 123.14792 63.615623 122.44479Q64.11562 121.74167 64.11562 119.63229Q64.11562 117.50729 63.615623 116.81979Q63.13125 116.11667 62.38125 116.11667Q61.6625 116.11667 61.225 116.72604Q60.678123 117.50729 60.678123 119.63229Z" fill-rule="nonzero"/><path fill="#000000" d="M52.6625 77.88125L52.6625 76.86562L58.225 76.86562L58.225 77.69375Q57.4125 78.56875 56.6 80.02187Q55.803123 81.45937 55.365623 82.99062Q55.0375 84.06875 54.959373 85.35L53.865623 85.35Q53.88125 84.33437 54.25625 82.89687Q54.646873 81.45937 55.35 80.13125Q56.06875 78.80312 56.88125 77.88125L52.6625 77.88125ZM59.6 83.1L60.709373 83.00625Q60.834373 83.81875 61.271873 84.225Q61.725 84.63125 62.365623 84.63125Q63.115623 84.63125 63.646873 84.05312Q64.17812 83.475 64.17812 82.5375Q64.17812 81.63125 63.6625 81.11562Q63.1625 80.58437 62.334373 80.58437Q61.834373 80.58437 61.4125 80.81875Q61.00625 81.05312 60.771873 81.4125L59.7875 81.2875L60.615623 76.88125L64.89687 76.88125L64.89687 77.88125L61.459373 77.88125L61.00625 80.19375Q61.771873 79.64687 62.615623 79.64687Q63.740623 79.64687 64.50625 80.42812Q65.2875 81.20937 65.2875 82.44375Q65.2875 83.6 64.61562 84.45937Q63.7875 85.49062 62.365623 85.49062Q61.19375 85.49062 60.44375 84.83437Q59.709373 84.17812 59.6 83.1Z" fill-rule="nonzero"/><path fill="#000000" d="M49.56875 46.833332L48.521873 46.833332L48.521873 40.114582Q48.13125 40.473957 47.50625 40.848957Q46.896873 41.208332 46.4125 41.380207L46.4125 40.364582Q47.2875 39.942707 47.94375 39.364582Q48.615623 38.770832 48.896873 38.208332L49.56875 38.208332L49.56875 46.833332ZM52.6 42.598957Q52.6 41.067707 52.9125 40.145832Q53.225 39.208332 53.834373 38.708332Q54.459373 38.208332 55.396873 38.208332Q56.084373 38.208332 56.6 38.489582Q57.13125 38.770832 57.475 39.302082Q57.81875 39.817707 58.00625 40.567707Q58.19375 41.317707 58.19375 42.598957Q58.19375 44.114582 57.88125 45.036457Q57.584373 45.958332 56.959373 46.473957Q56.35 46.973957 55.396873 46.973957Q54.1625 46.973957 53.44375 46.083332Q52.6 45.020832 52.6 42.598957ZM53.678123 42.598957Q53.678123 44.708332 54.178123 45.411457Q54.678123 46.114582 55.396873 46.114582Q56.13125 46.114582 56.615623 45.411457Q57.115623 44.708332 57.115623 42.598957Q57.115623 40.473957 56.615623 39.786457Q56.13125 39.083332 55.38125 39.083332Q54.6625 39.083332 54.225 39.692707Q53.678123 40.473957 53.678123 42.598957ZM59.6 42.598957Q59.6 41.067707 59.9125 40.145832Q60.225 39.208332 60.834373 38.708332Q61.459373 38.208332 62.396873 38.208332Q63.084373 38.208332 63.6 38.489582Q64.13125 38.770832 64.475 39.302082Q64.81875 39.817707 65.00625 40.567707Q65.19375 41.317707 65.19375 42.598957Q65.19375 44.114582 64.88125 45.036457Q64.58437 45.958332 63.959373 46.473957Q63.35 46.973957 62.396873 46.973957Q61.1625 46.973957 60.44375 46.083332Q59.6 45.020832 59.6 42.598957ZM60.678123 42.598957Q60.678123 44.708332 61.178123 45.411457Q61.678123 46.114582 62.396873 46.114582Q63.13125 46.114582 63.615623 45.411457Q64.11562 44.708332 64.11562 42.598957Q64.11562 40.473957 63.615623 39.786457Q63.13125 39.083332 62.38125 39.083332Q61.6625 39.083332 61.225 39.692707Q60.678123 40.473957 60.678123 42.598957Z" fill-rule="nonzero"/><path fill="#000000" d="M73.06875 213.9L72.02187 213.9L72.02187 207.18124Q71.63125 207.54062 71.00625 207.91562Q70.39687 208.275 69.9125 208.44687L69.9125 207.43124Q70.7875 207.00937 71.44375 206.43124Q72.11562 205.8375 72.39687 205.275L73.06875 205.275L73.06875 213.9Z" fill-rule="nonzero"/><path fill="#000000" d="M160.84688 212.88437L160.84688 213.9L155.15938 213.9Q155.15938 213.525 155.28438 213.16562Q155.50313 212.5875 155.97188 212.025Q156.45625 211.4625 157.3625 210.72812Q158.76875 209.57187 159.25313 208.9Q159.75313 208.22812 159.75313 207.63437Q159.75313 207.00937 159.3 206.5875Q158.84688 206.15 158.12813 206.15Q157.3625 206.15 156.90938 206.60312Q156.45625 207.05624 156.44063 207.86874L155.3625 207.75937Q155.47188 206.54062 156.19063 205.91562Q156.925 205.275 158.15938 205.275Q159.39375 205.275 160.1125 205.9625Q160.83125 206.65 160.83125 207.66562Q160.83125 208.18124 160.6125 208.68124Q160.40938 209.16562 159.90938 209.72812Q159.425 210.275 158.3 211.22812Q157.34688 212.025 157.06563 212.32187Q156.8 212.60312 156.62813 212.88437L160.84688 212.88437Z" fill-rule="nonzero"/><path fill="#000000" d="M241.5 211.63437L242.5625 211.49374Q242.73438 212.38437 243.17188 212.79062Q243.60938 213.18124 244.23438 213.18124Q244.98438 213.18124 245.5 212.66562Q246.01562 212.15 246.01562 211.38437Q246.01562 210.66562 245.53125 210.19687Q245.0625 209.7125 244.32812 209.7125Q244.03125 209.7125 243.57812 209.8375L243.70312 208.9Q243.8125 208.91562 243.875 208.91562Q244.54688 208.91562 245.07812 208.57187Q245.625 208.2125 245.625 207.47812Q245.625 206.9 245.23438 206.525Q244.84375 206.13437 244.21875 206.13437Q243.60938 206.13437 243.1875 206.525Q242.78125 206.91562 242.67188 207.68124L241.60938 207.49374Q241.79688 206.44687 242.48438 205.86874Q243.17188 205.275 244.1875 205.275Q244.89062 205.275 245.48438 205.5875Q246.07812 205.88437 246.39062 206.4Q246.70312 206.91562 246.70312 207.50937Q246.70312 208.05624 246.40625 208.525Q246.10938 208.97812 245.53125 209.24374Q246.28125 209.41562 246.70312 209.97812Q247.125 210.525 247.125 211.36874Q247.125 212.49374 246.29688 213.275Q245.48438 214.05624 244.23438 214.05624Q243.10938 214.05624 242.35938 213.38437Q241.60938 212.69687 241.5 211.63437Z" fill-rule="nonzero"/><path fill="#000000" d="M331.075 213.9L331.075 211.8375L327.35626 211.8375L327.35626 210.86874L331.27814 205.30624L332.1375 205.30624L332.1375 210.86874L333.29376 210.86874L333.29376 211.8375L332.1375 211.8375L332.1375 213.9L331.075 213.9ZM331.075 210.86874L331.075 207.00937L328.3875 210.86874L331.075 210.86874Z" fill-rule="nonzero"/><path fill="#000000" d="M413.9 211.65L415.00937 211.55624Q415.13437 212.36874 415.57187 212.775Q416.025 213.18124 416.66562 213.18124Q417.41562 213.18124 417.94687 212.60312Q418.47812 212.025 418.47812 211.0875Q418.47812 210.18124 417.9625 209.66562Q417.4625 209.13437 416.63437 209.13437Q416.13437 209.13437 415.7125 209.36874Q415.30624 209.60312 415.07187 209.9625L414.0875 209.8375L414.91562 205.43124L419.19687 205.43124L419.19687 206.43124L415.75937 206.43124L415.30624 208.74374Q416.07187 208.19687 416.91562 208.19687Q418.04062 208.19687 418.80624 208.97812Q419.5875 209.75937 419.5875 210.99374Q419.5875 212.15 418.91562 213.00937Q418.0875 214.04062 416.66562 214.04062Q415.49374 214.04062 414.74374 213.38437Q414.00937 212.72812 413.9 211.65Z" fill-rule="nonzero"/><path stroke="#4285f4" stroke-width="4.0" stroke-linecap="butt" d="M160.0 20.1L172.0 20.1" fill-rule="nonzero"/><path fill="#1a1a1a" d="M187.0625 21.084375L188.1875 21.38125Q187.82812 22.771875 186.90625 23.50625Q185.98438 24.240625 184.64062 24.240625Q183.25 24.240625 182.375 23.678125Q181.5 23.115625 181.04688 22.053125Q180.59375 20.975 180.59375 19.740625Q180.59375 18.396875 181.10938 17.396875Q181.625 16.396875 182.5625 15.88125Q183.51562 15.365625 184.65625 15.365625Q185.9375 15.365625 186.8125 16.021875Q187.70312 16.678125 188.04688 17.865625L186.92188 18.13125Q186.625 17.19375 186.04688 16.771875Q185.48438 16.334375 184.625 16.334375Q183.64062 16.334375 182.96875 16.81875Q182.3125 17.2875 182.03125 18.084375Q181.76562 18.88125 181.76562 19.740625Q181.76562 20.834375 182.07812 21.646875Q182.40625 22.459375 183.07812 22.865625Q183.75 23.271875 184.54688 23.271875Q185.5 23.271875 186.15625 22.725Q186.82812 22.178125 187.0625 21.084375ZM189.92188 24.1L189.92188 15.50625L191.07812 15.50625L195.59375 22.25625L195.59375 15.50625L196.6875 15.50625L196.6875 24.1L195.51562 24.1L191.0 17.35L191.0 24.1L189.92188 24.1ZM198.92188 24.1L198.92188 15.50625L200.07812 15.50625L204.59375 22.25625L204.59375 15.50625L205.6875 15.50625L205.6875 24.1L204.51562 24.1L200.0 17.35L200.0 24.1L198.92188 24.1Z" fill-rule="nonzero"/><path stroke="#ea4335" stroke-width="4.0" stroke-linecap="butt" d="M223.0 20.1L235.0 20.1" fill-rule="nonzero"/><path fill="#1a1a1a" d="M243.9375 24.1L243.9375 15.50625L247.75 15.50625Q248.90625 15.50625 249.5 15.740625Q250.09375 15.975 250.45312 16.56875Q250.8125 17.146875 250.8125 17.85Q250.8125 18.771875 250.21875 19.396875Q249.625 20.021875 248.39062 20.19375Q248.84375 20.4125 249.07812 20.615625Q249.57812 21.06875 250.01562 21.75625L251.51562 24.1L250.07812 24.1L248.95312 22.31875Q248.45312 21.5375 248.125 21.13125Q247.8125 20.725 247.54688 20.56875Q247.29688 20.396875 247.03125 20.31875Q246.84375 20.2875 246.40625 20.2875L245.07812 20.2875L245.07812 24.1L243.9375 24.1ZM245.07812 19.303125L247.53125 19.303125Q248.29688 19.303125 248.73438 19.146875Q249.1875 18.975 249.40625 18.63125Q249.64062 18.271875 249.64062 17.85Q249.64062 17.240625 249.1875 16.85Q248.75 16.459375 247.79688 16.459375L245.07812 16.459375L245.07812 19.303125ZM252.92188 24.1L252.92188 15.50625L254.07812 15.50625L258.59375 22.25625L258.59375 15.50625L259.6875 15.50625L259.6875 24.1L258.51562 24.1L254.0 17.35L254.0 24.1L252.92188 24.1ZM261.92188 24.1L261.92188 15.50625L263.07812 15.50625L267.59375 22.25625L267.59375 15.50625L268.6875 15.50625L268.6875 24.1L267.51562 24.1L263.0 17.35L263.0 24.1L261.92188 24.1Z" fill-rule="nonzero"/></svg>